%TF.GenerationSoftware,KiCad,Pcbnew,9.0.0*%
%TF.CreationDate,2025-03-30T15:15:58+05:30*%
%TF.ProjectId,garden management system,67617264-656e-4206-9d61-6e6167656d65,rev?*%
%TF.SameCoordinates,Original*%
%TF.FileFunction,Soldermask,Top*%
%TF.FilePolarity,Negative*%
%FSLAX46Y46*%
G04 Gerber Fmt 4.6, Leading zero omitted, Abs format (unit mm)*
G04 Created by KiCad (PCBNEW 9.0.0) date 2025-03-30 15:15:58*
%MOMM*%
%LPD*%
G01*
G04 APERTURE LIST*
G04 Aperture macros list*
%AMRoundRect*
0 Rectangle with rounded corners*
0 $1 Rounding radius*
0 $2 $3 $4 $5 $6 $7 $8 $9 X,Y pos of 4 corners*
0 Add a 4 corners polygon primitive as box body*
4,1,4,$2,$3,$4,$5,$6,$7,$8,$9,$2,$3,0*
0 Add four circle primitives for the rounded corners*
1,1,$1+$1,$2,$3*
1,1,$1+$1,$4,$5*
1,1,$1+$1,$6,$7*
1,1,$1+$1,$8,$9*
0 Add four rect primitives between the rounded corners*
20,1,$1+$1,$2,$3,$4,$5,0*
20,1,$1+$1,$4,$5,$6,$7,0*
20,1,$1+$1,$6,$7,$8,$9,0*
20,1,$1+$1,$8,$9,$2,$3,0*%
%AMOutline4P*
0 Free polygon, 4 corners , with rotation*
0 The origin of the aperture is its center*
0 number of corners: always 4*
0 $1 to $8 corner X, Y*
0 $9 Rotation angle, in degrees counterclockwise*
0 create outline with 4 corners*
4,1,4,$1,$2,$3,$4,$5,$6,$7,$8,$1,$2,$9*%
G04 Aperture macros list end*
%ADD10R,1.500000X0.900000*%
%ADD11R,0.900000X1.500000*%
%ADD12R,0.900000X0.900000*%
%ADD13C,0.600000*%
%ADD14R,0.600000X0.400000*%
%ADD15Outline4P,-0.650000X-0.150000X0.650000X-0.150000X0.350000X0.150000X-0.350000X0.150000X0.000000*%
%ADD16R,1.300000X2.200000*%
%ADD17R,1.000000X0.300000*%
%ADD18R,2.000000X2.000000*%
%ADD19C,2.000000*%
%ADD20R,3.000000X3.000000*%
%ADD21C,3.000000*%
%ADD22R,0.400000X2.000000*%
%ADD23RoundRect,0.250000X-2.050000X-0.300000X2.050000X-0.300000X2.050000X0.300000X-2.050000X0.300000X0*%
%ADD24RoundRect,0.250002X-4.449998X-5.149998X4.449998X-5.149998X4.449998X5.149998X-4.449998X5.149998X0*%
G04 APERTURE END LIST*
D10*
%TO.C,U1*%
X122710000Y-85990000D03*
X122710000Y-87260000D03*
X122710000Y-88530000D03*
X122710000Y-89800000D03*
X122710000Y-91070000D03*
X122710000Y-92340000D03*
X122710000Y-93610000D03*
X122710000Y-94880000D03*
X122710000Y-96150000D03*
X122710000Y-97420000D03*
X122710000Y-98690000D03*
X122710000Y-99960000D03*
X122710000Y-101230000D03*
X122710000Y-102500000D03*
D11*
X125745000Y-103750000D03*
X127015000Y-103750000D03*
X128285000Y-103750000D03*
X129555000Y-103750000D03*
X130825000Y-103750000D03*
X132095000Y-103750000D03*
X133365000Y-103750000D03*
X134635000Y-103750000D03*
X135905000Y-103750000D03*
X137175000Y-103750000D03*
D10*
X140210000Y-102500000D03*
X140210000Y-101230000D03*
X140210000Y-99960000D03*
X140210000Y-98690000D03*
X140210000Y-97420000D03*
X140210000Y-96150000D03*
X140210000Y-94880000D03*
X140210000Y-93610000D03*
X140210000Y-92340000D03*
X140210000Y-91070000D03*
X140210000Y-89800000D03*
X140210000Y-88530000D03*
X140210000Y-87260000D03*
X140210000Y-85990000D03*
D12*
X128560000Y-92310000D03*
D13*
X128560000Y-93010000D03*
D12*
X128560000Y-93710000D03*
D13*
X128560000Y-94410000D03*
D12*
X128560000Y-95110000D03*
D13*
X129260000Y-92310000D03*
X129260000Y-93710000D03*
X129260000Y-95110000D03*
D12*
X129960000Y-92310000D03*
D13*
X129960000Y-93010000D03*
D12*
X129960000Y-93710000D03*
D13*
X129960000Y-94410000D03*
D12*
X129960000Y-95110000D03*
D13*
X130660000Y-92310000D03*
X130660000Y-93710000D03*
X130660000Y-95110000D03*
D12*
X131360000Y-92310000D03*
D13*
X131360000Y-93010000D03*
D12*
X131360000Y-93710000D03*
D13*
X131360000Y-94410000D03*
D12*
X131360000Y-95110000D03*
%TD*%
D14*
%TO.C,U3*%
X136400000Y-141400000D03*
X136400000Y-142000000D03*
X136400000Y-142600000D03*
X136400000Y-143200000D03*
X136400000Y-143800000D03*
X138500000Y-143800000D03*
X138500000Y-143200000D03*
X138500000Y-142600000D03*
X138500000Y-142000000D03*
X138500000Y-141400000D03*
D15*
X137450000Y-141500000D03*
D16*
X137450000Y-142750000D03*
D17*
X137600000Y-141500000D03*
%TD*%
D18*
%TO.C,BZ1*%
X193500000Y-133000000D03*
D19*
X203500000Y-133000000D03*
%TD*%
D20*
%TO.C,BT1*%
X89730000Y-133500000D03*
D21*
X110220000Y-133500000D03*
%TD*%
D22*
%TO.C,DS1*%
X175850000Y-97945000D03*
X176550000Y-97945000D03*
X177250000Y-97945000D03*
X177950000Y-97945000D03*
X178650000Y-97945000D03*
X179350000Y-97945000D03*
X180050000Y-97945000D03*
X180750000Y-97945000D03*
X181450000Y-97945000D03*
X182150000Y-97945000D03*
X182850000Y-97945000D03*
X183550000Y-97945000D03*
X184250000Y-97945000D03*
X184950000Y-97945000D03*
X185650000Y-97945000D03*
X186350000Y-97945000D03*
X187050000Y-97945000D03*
X187750000Y-97945000D03*
X188450000Y-97945000D03*
X189150000Y-97945000D03*
X189850000Y-97945000D03*
X190550000Y-97945000D03*
X191250000Y-97945000D03*
X191950000Y-97945000D03*
X192650000Y-97945000D03*
X193350000Y-97945000D03*
X194050000Y-97945000D03*
X194750000Y-97945000D03*
X195450000Y-97945000D03*
X196150000Y-97945000D03*
%TD*%
D23*
%TO.C,U2*%
X163225000Y-137100000D03*
X163225000Y-138800000D03*
X163225000Y-140500000D03*
D24*
X172375000Y-140500000D03*
D23*
X163225000Y-142200000D03*
X163225000Y-143900000D03*
%TD*%
M02*
