%TF.GenerationSoftware,KiCad,Pcbnew,9.0.0*%
%TF.CreationDate,2025-03-30T15:15:58+05:30*%
%TF.ProjectId,garden management system,67617264-656e-4206-9d61-6e6167656d65,rev?*%
%TF.SameCoordinates,Original*%
%TF.FileFunction,Copper,L2,Bot*%
%TF.FilePolarity,Positive*%
%FSLAX46Y46*%
G04 Gerber Fmt 4.6, Leading zero omitted, Abs format (unit mm)*
G04 Created by KiCad (PCBNEW 9.0.0) date 2025-03-30 15:15:58*
%MOMM*%
%LPD*%
G01*
G04 APERTURE LIST*
%TA.AperFunction,HeatsinkPad*%
%ADD10C,0.600000*%
%TD*%
%TA.AperFunction,ComponentPad*%
%ADD11R,2.000000X2.000000*%
%TD*%
%TA.AperFunction,ComponentPad*%
%ADD12C,2.000000*%
%TD*%
%TA.AperFunction,ComponentPad*%
%ADD13R,3.000000X3.000000*%
%TD*%
%TA.AperFunction,ComponentPad*%
%ADD14C,3.000000*%
%TD*%
%TA.AperFunction,ViaPad*%
%ADD15C,0.600000*%
%TD*%
%TA.AperFunction,Conductor*%
%ADD16C,0.200000*%
%TD*%
G04 APERTURE END LIST*
D10*
%TO.P,U1,39,GND*%
%TO.N,GND*%
X128560000Y-93010000D03*
X128560000Y-94410000D03*
X129260000Y-92310000D03*
X129260000Y-93710000D03*
X129260000Y-95110000D03*
X129960000Y-93010000D03*
X129960000Y-94410000D03*
X130660000Y-92310000D03*
X130660000Y-93710000D03*
X130660000Y-95110000D03*
X131360000Y-93010000D03*
X131360000Y-94410000D03*
%TD*%
D11*
%TO.P,BZ1,1,+*%
%TO.N,Net-(BZ1-+)*%
X193500000Y-133000000D03*
D12*
%TO.P,BZ1,2,-*%
%TO.N,GND*%
X203500000Y-133000000D03*
%TD*%
D13*
%TO.P,BT1,1,+*%
%TO.N,Net-(BT1-+)*%
X89730000Y-133500000D03*
D14*
%TO.P,BT1,2,-*%
%TO.N,Net-(BT1--)*%
X110220000Y-133500000D03*
%TD*%
D15*
%TO.N,Net-(U1-SENSOR_VP)*%
X141000000Y-144000000D03*
X141000000Y-134500000D03*
X128500000Y-98000000D03*
X126000000Y-89500000D03*
%TO.N,Net-(U1-IO27)*%
X133000000Y-143000000D03*
X133000000Y-134000000D03*
%TO.N,GND*%
X136500000Y-90000000D03*
X134310000Y-92310000D03*
X182500000Y-135500000D03*
X186000000Y-129500000D03*
%TO.N,Net-(BZ1-+)*%
X150500000Y-105500000D03*
X146270000Y-101230000D03*
%TD*%
D16*
%TO.N,Net-(U1-SENSOR_VP)*%
X141000000Y-134500000D02*
X141000000Y-144000000D01*
X127000000Y-96500000D02*
X128500000Y-98000000D01*
X127000000Y-92000000D02*
X127000000Y-96500000D01*
X127000000Y-90000000D02*
X127000000Y-92000000D01*
X126500000Y-89500000D02*
X127000000Y-90000000D01*
X126000000Y-89500000D02*
X126500000Y-89500000D01*
%TO.N,Net-(U1-IO27)*%
X133000000Y-134000000D02*
X133000000Y-143000000D01*
%TO.N,GND*%
X134310000Y-92190000D02*
X136500000Y-90000000D01*
X134310000Y-92310000D02*
X134310000Y-92190000D01*
X182500000Y-133000000D02*
X182500000Y-135500000D01*
X186000000Y-129500000D02*
X182500000Y-133000000D01*
%TO.N,Net-(BZ1-+)*%
X150500000Y-105460000D02*
X150500000Y-105500000D01*
X146270000Y-101230000D02*
X150500000Y-105460000D01*
%TD*%
M02*
