%TF.GenerationSoftware,KiCad,Pcbnew,9.0.0*%
%TF.CreationDate,2025-03-30T15:15:58+05:30*%
%TF.ProjectId,garden management system,67617264-656e-4206-9d61-6e6167656d65,rev?*%
%TF.SameCoordinates,Original*%
%TF.FileFunction,Legend,Top*%
%TF.FilePolarity,Positive*%
%FSLAX46Y46*%
G04 Gerber Fmt 4.6, Leading zero omitted, Abs format (unit mm)*
G04 Created by KiCad (PCBNEW 9.0.0) date 2025-03-30 15:15:58*
%MOMM*%
%LPD*%
G01*
G04 APERTURE LIST*
%ADD10C,0.150000*%
%ADD11C,0.120000*%
%ADD12C,0.100000*%
G04 APERTURE END LIST*
D10*
X120414819Y-104413220D02*
X121224342Y-104413220D01*
X121224342Y-104413220D02*
X121319580Y-104365601D01*
X121319580Y-104365601D02*
X121367200Y-104317982D01*
X121367200Y-104317982D02*
X121414819Y-104222744D01*
X121414819Y-104222744D02*
X121414819Y-104032268D01*
X121414819Y-104032268D02*
X121367200Y-103937030D01*
X121367200Y-103937030D02*
X121319580Y-103889411D01*
X121319580Y-103889411D02*
X121224342Y-103841792D01*
X121224342Y-103841792D02*
X120414819Y-103841792D01*
X121414819Y-102841792D02*
X121414819Y-103413220D01*
X121414819Y-103127506D02*
X120414819Y-103127506D01*
X120414819Y-103127506D02*
X120557676Y-103222744D01*
X120557676Y-103222744D02*
X120652914Y-103317982D01*
X120652914Y-103317982D02*
X120700533Y-103413220D01*
X136688095Y-138954819D02*
X136688095Y-139764342D01*
X136688095Y-139764342D02*
X136735714Y-139859580D01*
X136735714Y-139859580D02*
X136783333Y-139907200D01*
X136783333Y-139907200D02*
X136878571Y-139954819D01*
X136878571Y-139954819D02*
X137069047Y-139954819D01*
X137069047Y-139954819D02*
X137164285Y-139907200D01*
X137164285Y-139907200D02*
X137211904Y-139859580D01*
X137211904Y-139859580D02*
X137259523Y-139764342D01*
X137259523Y-139764342D02*
X137259523Y-138954819D01*
X137640476Y-138954819D02*
X138259523Y-138954819D01*
X138259523Y-138954819D02*
X137926190Y-139335771D01*
X137926190Y-139335771D02*
X138069047Y-139335771D01*
X138069047Y-139335771D02*
X138164285Y-139383390D01*
X138164285Y-139383390D02*
X138211904Y-139431009D01*
X138211904Y-139431009D02*
X138259523Y-139526247D01*
X138259523Y-139526247D02*
X138259523Y-139764342D01*
X138259523Y-139764342D02*
X138211904Y-139859580D01*
X138211904Y-139859580D02*
X138164285Y-139907200D01*
X138164285Y-139907200D02*
X138069047Y-139954819D01*
X138069047Y-139954819D02*
X137783333Y-139954819D01*
X137783333Y-139954819D02*
X137688095Y-139907200D01*
X137688095Y-139907200D02*
X137640476Y-139859580D01*
X197779047Y-124701009D02*
X197921904Y-124748628D01*
X197921904Y-124748628D02*
X197969523Y-124796247D01*
X197969523Y-124796247D02*
X198017142Y-124891485D01*
X198017142Y-124891485D02*
X198017142Y-125034342D01*
X198017142Y-125034342D02*
X197969523Y-125129580D01*
X197969523Y-125129580D02*
X197921904Y-125177200D01*
X197921904Y-125177200D02*
X197826666Y-125224819D01*
X197826666Y-125224819D02*
X197445714Y-125224819D01*
X197445714Y-125224819D02*
X197445714Y-124224819D01*
X197445714Y-124224819D02*
X197779047Y-124224819D01*
X197779047Y-124224819D02*
X197874285Y-124272438D01*
X197874285Y-124272438D02*
X197921904Y-124320057D01*
X197921904Y-124320057D02*
X197969523Y-124415295D01*
X197969523Y-124415295D02*
X197969523Y-124510533D01*
X197969523Y-124510533D02*
X197921904Y-124605771D01*
X197921904Y-124605771D02*
X197874285Y-124653390D01*
X197874285Y-124653390D02*
X197779047Y-124701009D01*
X197779047Y-124701009D02*
X197445714Y-124701009D01*
X198350476Y-124224819D02*
X199017142Y-124224819D01*
X199017142Y-124224819D02*
X198350476Y-125224819D01*
X198350476Y-125224819D02*
X199017142Y-125224819D01*
X199921904Y-125224819D02*
X199350476Y-125224819D01*
X199636190Y-125224819D02*
X199636190Y-124224819D01*
X199636190Y-124224819D02*
X199540952Y-124367676D01*
X199540952Y-124367676D02*
X199445714Y-124462914D01*
X199445714Y-124462914D02*
X199350476Y-124510533D01*
X193109048Y-130533866D02*
X193870953Y-130533866D01*
X193490000Y-130914819D02*
X193490000Y-130152914D01*
X88944285Y-129431009D02*
X89087142Y-129478628D01*
X89087142Y-129478628D02*
X89134761Y-129526247D01*
X89134761Y-129526247D02*
X89182380Y-129621485D01*
X89182380Y-129621485D02*
X89182380Y-129764342D01*
X89182380Y-129764342D02*
X89134761Y-129859580D01*
X89134761Y-129859580D02*
X89087142Y-129907200D01*
X89087142Y-129907200D02*
X88991904Y-129954819D01*
X88991904Y-129954819D02*
X88610952Y-129954819D01*
X88610952Y-129954819D02*
X88610952Y-128954819D01*
X88610952Y-128954819D02*
X88944285Y-128954819D01*
X88944285Y-128954819D02*
X89039523Y-129002438D01*
X89039523Y-129002438D02*
X89087142Y-129050057D01*
X89087142Y-129050057D02*
X89134761Y-129145295D01*
X89134761Y-129145295D02*
X89134761Y-129240533D01*
X89134761Y-129240533D02*
X89087142Y-129335771D01*
X89087142Y-129335771D02*
X89039523Y-129383390D01*
X89039523Y-129383390D02*
X88944285Y-129431009D01*
X88944285Y-129431009D02*
X88610952Y-129431009D01*
X89468095Y-128954819D02*
X90039523Y-128954819D01*
X89753809Y-129954819D02*
X89753809Y-128954819D01*
X90896666Y-129954819D02*
X90325238Y-129954819D01*
X90610952Y-129954819D02*
X90610952Y-128954819D01*
X90610952Y-128954819D02*
X90515714Y-129097676D01*
X90515714Y-129097676D02*
X90420476Y-129192914D01*
X90420476Y-129192914D02*
X90325238Y-129240533D01*
X91908571Y-133614700D02*
X93051429Y-133614700D01*
X92480000Y-134186128D02*
X92480000Y-133043271D01*
X184435714Y-100499819D02*
X184435714Y-99499819D01*
X184435714Y-99499819D02*
X184673809Y-99499819D01*
X184673809Y-99499819D02*
X184816666Y-99547438D01*
X184816666Y-99547438D02*
X184911904Y-99642676D01*
X184911904Y-99642676D02*
X184959523Y-99737914D01*
X184959523Y-99737914D02*
X185007142Y-99928390D01*
X185007142Y-99928390D02*
X185007142Y-100071247D01*
X185007142Y-100071247D02*
X184959523Y-100261723D01*
X184959523Y-100261723D02*
X184911904Y-100356961D01*
X184911904Y-100356961D02*
X184816666Y-100452200D01*
X184816666Y-100452200D02*
X184673809Y-100499819D01*
X184673809Y-100499819D02*
X184435714Y-100499819D01*
X185388095Y-100452200D02*
X185530952Y-100499819D01*
X185530952Y-100499819D02*
X185769047Y-100499819D01*
X185769047Y-100499819D02*
X185864285Y-100452200D01*
X185864285Y-100452200D02*
X185911904Y-100404580D01*
X185911904Y-100404580D02*
X185959523Y-100309342D01*
X185959523Y-100309342D02*
X185959523Y-100214104D01*
X185959523Y-100214104D02*
X185911904Y-100118866D01*
X185911904Y-100118866D02*
X185864285Y-100071247D01*
X185864285Y-100071247D02*
X185769047Y-100023628D01*
X185769047Y-100023628D02*
X185578571Y-99976009D01*
X185578571Y-99976009D02*
X185483333Y-99928390D01*
X185483333Y-99928390D02*
X185435714Y-99880771D01*
X185435714Y-99880771D02*
X185388095Y-99785533D01*
X185388095Y-99785533D02*
X185388095Y-99690295D01*
X185388095Y-99690295D02*
X185435714Y-99595057D01*
X185435714Y-99595057D02*
X185483333Y-99547438D01*
X185483333Y-99547438D02*
X185578571Y-99499819D01*
X185578571Y-99499819D02*
X185816666Y-99499819D01*
X185816666Y-99499819D02*
X185959523Y-99547438D01*
X186911904Y-100499819D02*
X186340476Y-100499819D01*
X186626190Y-100499819D02*
X186626190Y-99499819D01*
X186626190Y-99499819D02*
X186530952Y-99642676D01*
X186530952Y-99642676D02*
X186435714Y-99737914D01*
X186435714Y-99737914D02*
X186340476Y-99785533D01*
X170113095Y-133304819D02*
X170113095Y-134114342D01*
X170113095Y-134114342D02*
X170160714Y-134209580D01*
X170160714Y-134209580D02*
X170208333Y-134257200D01*
X170208333Y-134257200D02*
X170303571Y-134304819D01*
X170303571Y-134304819D02*
X170494047Y-134304819D01*
X170494047Y-134304819D02*
X170589285Y-134257200D01*
X170589285Y-134257200D02*
X170636904Y-134209580D01*
X170636904Y-134209580D02*
X170684523Y-134114342D01*
X170684523Y-134114342D02*
X170684523Y-133304819D01*
X171113095Y-133400057D02*
X171160714Y-133352438D01*
X171160714Y-133352438D02*
X171255952Y-133304819D01*
X171255952Y-133304819D02*
X171494047Y-133304819D01*
X171494047Y-133304819D02*
X171589285Y-133352438D01*
X171589285Y-133352438D02*
X171636904Y-133400057D01*
X171636904Y-133400057D02*
X171684523Y-133495295D01*
X171684523Y-133495295D02*
X171684523Y-133590533D01*
X171684523Y-133590533D02*
X171636904Y-133733390D01*
X171636904Y-133733390D02*
X171065476Y-134304819D01*
X171065476Y-134304819D02*
X171684523Y-134304819D01*
D11*
%TO.C,U1*%
X122260000Y-104200000D02*
X122260000Y-103250000D01*
X123660000Y-104200000D02*
X122260000Y-104200000D01*
X139260000Y-104200000D02*
X140660000Y-104200000D01*
X140660000Y-104200000D02*
X140660000Y-103250000D01*
X122260000Y-85250000D02*
X121760000Y-85250000D01*
X122260000Y-84750000D01*
X122260000Y-85250000D01*
G36*
X122260000Y-85250000D02*
G01*
X121760000Y-85250000D01*
X122260000Y-84750000D01*
X122260000Y-85250000D01*
G37*
D12*
%TO.C,U3*%
X136050000Y-140750000D02*
X136050000Y-141030000D01*
X136050000Y-144170000D02*
X136050000Y-144650000D01*
X136050000Y-144650000D02*
X136690000Y-144650000D01*
X136250000Y-140550000D02*
X136690000Y-140550000D01*
X138210000Y-140550000D02*
X138850000Y-140550000D01*
X138210000Y-144650000D02*
X138850000Y-144650000D01*
X138850000Y-140550000D02*
X138850000Y-141030000D01*
X138850000Y-144170000D02*
X138850000Y-144650000D01*
X136050000Y-140550000D02*
X135690000Y-140550000D01*
X136050000Y-140190000D01*
X136050000Y-140550000D01*
G36*
X136050000Y-140550000D02*
G01*
X135690000Y-140550000D01*
X136050000Y-140190000D01*
X136050000Y-140550000D01*
G37*
D11*
%TO.C,BZ1*%
X205600000Y-133000000D02*
G75*
G02*
X191400000Y-133000000I-7100000J0D01*
G01*
X191400000Y-133000000D02*
G75*
G02*
X205600000Y-133000000I7100000J0D01*
G01*
%TO.C,BT1*%
X88280000Y-130500000D02*
X91830000Y-130500000D01*
X88280000Y-131700000D02*
X88280000Y-130500000D01*
X88280000Y-135300000D02*
X88280000Y-136500000D01*
X88280000Y-136500000D02*
X91830000Y-136500000D01*
X91830000Y-136500000D02*
G75*
G02*
X92580000Y-137000000I0J-812500D01*
G01*
X92580000Y-130000000D02*
G75*
G02*
X91830000Y-130500000I-750000J312500D01*
G01*
X92580000Y-130000000D02*
G75*
G02*
X117766170Y-133500000I12349900J-3499972D01*
G01*
X117766170Y-133500000D02*
G75*
G02*
X92580000Y-137000000I-12836270J-28D01*
G01*
%TO.C,DS1*%
X174850000Y-96945000D02*
X174850000Y-99095000D01*
X174850000Y-99095000D02*
X197150000Y-99095000D01*
X197150000Y-99095000D02*
X197150000Y-96945000D01*
D12*
X178350000Y-94195000D02*
G75*
G02*
X177650000Y-94195000I-350000J0D01*
G01*
X177650000Y-94195000D02*
G75*
G02*
X178350000Y-94195000I350000J0D01*
G01*
X194350000Y-94195000D02*
G75*
G02*
X193650000Y-94195000I-350000J0D01*
G01*
X193650000Y-94195000D02*
G75*
G02*
X194350000Y-94195000I350000J0D01*
G01*
D11*
%TO.C,U2*%
X166050000Y-135300000D02*
X166050000Y-136250000D01*
X166050000Y-145700000D02*
X166050000Y-144750000D01*
X167415000Y-135300000D02*
X166050000Y-135300000D01*
X167415000Y-145700000D02*
X166050000Y-145700000D01*
X163225000Y-136290000D02*
X162885000Y-135820000D01*
X163565000Y-135820000D01*
X163225000Y-136290000D01*
G36*
X163225000Y-136290000D02*
G01*
X162885000Y-135820000D01*
X163565000Y-135820000D01*
X163225000Y-136290000D01*
G37*
%TD*%
M02*
